<svg width="48" height="48" viewBox="0 0 48 48" fill="none" xmlns="http://www.w3.org/2000/svg">
<g id="Google Play">
<g id="Google Play_2">
<rect id="Rectangle" width="48" height="48" rx="24" fill="black"/>
<path id="Vector" fill-rule="evenodd" clip-rule="evenodd" d="M15.1615 38C15.279 37.9557 15.4022 37.8999 15.5293 37.8306L32.4047 28.5929L28.4058 24.5978L15.1615 38ZM33.1537 28.1847L28.9796 24.0164L33.1498 19.7961L38.8912 22.9286C40.3063 23.7006 39.5824 24.6652 38.8912 25.0426L33.1537 28.1847ZM32.4028 19.3898L15.5312 10.1848C15.3502 10.0866 15.1461 10.027 14.942 10L28.402 23.4407L32.4028 19.3898ZM13.9524 10.1656L27.8282 24.0202L14.0179 37.9962C13.6155 37.7401 13.3979 37.1856 13.396 36.4694C13.3883 35.0966 13.2786 13.3 13.2709 11.6654C13.267 10.8799 13.552 10.4024 13.9524 10.1656Z" fill="white"/>
</g>
</g>
</svg>
